<svg id="Layer_1" data-name="Layer 1" xmlns="http://www.w3.org/2000/svg" viewBox="0 0 414.51 394"><defs><style>.cls-1{fill:#e9e9e9;}</style></defs><title>logo_circle</title><path class="cls-1" d="M208.21,5C102.45,5,16.71,90.74,16.71,196.5a190.87,190.87,0,0,0,54.74,134V104.66h7.35l12,18.66a55.15,55.15,0,0,1,18.92-16.23,52.43,52.43,0,0,1,24.84-6h5.56a52.89,52.89,0,0,1,21,4.22,53.86,53.86,0,0,1,28.79,28.79,52.89,52.89,0,0,1,4.22,21v82.87a52.87,52.87,0,0,1-4.22,21,53.86,53.86,0,0,1-28.79,28.79,52.88,52.88,0,0,1-21,4.22h-5.56a52.88,52.88,0,0,1-41.08-19v76.95A190.65,190.65,0,0,0,208.21,388c105.76,0,191.5-85.74,191.5-191.5S314,5,208.21,5Zm114.7,283.34V153.81a31.2,31.2,0,0,0-2.51-12.47,31.79,31.79,0,0,0-17-17A31.21,31.21,0,0,0,291,121.88H276.27a31.19,31.19,0,0,0-12.47,2.51,31.79,31.79,0,0,0-17,17,31.15,31.15,0,0,0-2.51,12.47V288.34H222.28V31.11h22.06v89a52.88,52.88,0,0,1,41.08-19H291a52.89,52.89,0,0,1,21,4.22,53.87,53.87,0,0,1,28.79,28.79,52.9,52.9,0,0,1,4.21,21V288.34Z"/><path class="cls-1" d="M113,268.55A31.09,31.09,0,0,0,125.45,271h14.71a31.1,31.1,0,0,0,12.47-2.45,32.09,32.09,0,0,0,10.14-6.79,32.7,32.7,0,0,0,7-10.12,31.27,31.27,0,0,0,2.73-12.45V153.81a31.36,31.36,0,0,0-2.73-12.47,31.93,31.93,0,0,0-17.11-16.89A31.42,31.42,0,0,0,140.15,122H125.45A31.14,31.14,0,0,0,113,124.45a31.65,31.65,0,0,0-17,16.91,31.08,31.08,0,0,0-2.51,12.45v85.38A31.14,31.14,0,0,0,96,251.66a31.68,31.68,0,0,0,17,16.89Z"/></svg>