<svg id="Layer_1" data-name="Layer 1" xmlns="http://www.w3.org/2000/svg" viewBox="0 0 463 560"><defs><style>.cls-1,.cls-2,.cls-3{fill:#494e6b;}.cls-2{font-size:77.51px;}.cls-2,.cls-3{font-family:Abel-Regular, Abel;}.cls-3{font-size:34.72px;}</style></defs><title>Artboard 1</title><path class="cls-1" d="M227.7,31C121.94,31,36.2,116.74,36.2,222.5a190.87,190.87,0,0,0,54.74,134V130.66h7.35l12,18.66a55.15,55.15,0,0,1,18.92-16.23,52.43,52.43,0,0,1,24.84-6h5.56a52.89,52.89,0,0,1,21,4.22,53.86,53.86,0,0,1,28.79,28.79,52.89,52.89,0,0,1,4.22,21v82.87a52.87,52.87,0,0,1-4.22,21,53.86,53.86,0,0,1-28.79,28.79,52.88,52.88,0,0,1-21,4.22h-5.56a52.88,52.88,0,0,1-41.08-19v76.95A190.65,190.65,0,0,0,227.7,414c105.76,0,191.5-85.74,191.5-191.5S333.46,31,227.7,31ZM342.4,314.34V179.81a31.2,31.2,0,0,0-2.51-12.47,31.79,31.79,0,0,0-17-17,31.21,31.21,0,0,0-12.47-2.51H295.76a31.19,31.19,0,0,0-12.47,2.51,31.79,31.79,0,0,0-17,17,31.15,31.15,0,0,0-2.51,12.47V314.34H241.76V57.11h22.06v89a52.88,52.88,0,0,1,41.08-19h5.56a52.89,52.89,0,0,1,21,4.22,53.87,53.87,0,0,1,28.79,28.79,52.9,52.9,0,0,1,4.21,21V314.34Z"/><path class="cls-1" d="M132.47,294.55A31.09,31.09,0,0,0,144.93,297h14.71a31.1,31.1,0,0,0,12.47-2.45,32.09,32.09,0,0,0,10.14-6.79,32.7,32.7,0,0,0,7-10.12A31.27,31.27,0,0,0,192,265.19V179.81a31.36,31.36,0,0,0-2.73-12.47,31.93,31.93,0,0,0-17.11-16.89A31.42,31.42,0,0,0,159.64,148H144.93a31.14,31.14,0,0,0-12.47,2.45,31.65,31.65,0,0,0-17,16.91A31.08,31.08,0,0,0,113,179.81v85.38a31.14,31.14,0,0,0,2.51,12.47,31.68,31.68,0,0,0,17,16.89Z"/><text class="cls-2" transform="translate(18.49 482.38)">petter harsem</text><text class="cls-3" transform="translate(145.09 518)">pharsem.net</text></svg>