<?xml version="1.0" encoding="utf-8"?>
<!-- Generator: Adobe Illustrator 20.1.0, SVG Export Plug-In . SVG Version: 6.00 Build 0)  -->
<svg version="1.1" id="Layer_1" xmlns="http://www.w3.org/2000/svg" xmlns:xlink="http://www.w3.org/1999/xlink" x="0px" y="0px"
	 viewBox="0 0 559.5 100.5" style="enable-background:new 0 0 559.5 100.5;" xml:space="preserve">
<style type="text/css">
	.st0{fill:#E9E9E9;}
	.st1{clip-path:url(#SVGID_2_);fill:#E9E9E9;}
	.st2{clip-path:url(#SVGID_6_);fill:#E9E9E9;}
	.st3{clip-path:url(#SVGID_9_);fill:#E9E9E9;}
	.st4{clip-path:url(#SVGID_11_);fill-rule:evenodd;clip-rule:evenodd;fill:#E9E9E9;}
</style>
<g>
	<g>
		<path id="SVGID_3_" class="st0" d="M279.8,100.1c27.6,0,50-22.4,50-50s-22.4-50-50-50s-50,22.4-50,50S252.1,100.1,279.8,100.1
			L279.8,100.1z M272.6,77.3V50.1h-5.6v-9.4h5.6v-5.6c0-7.7,3.2-12.1,12.1-12.1h7.5v9.3h-4.7c-3.5,0-3.7,1.3-3.7,3.7v4.7h8.5l-1,9.4
			h-7.5v27.2L272.6,77.3L272.6,77.3z"/>
	</g>
	<g>
		<defs>
			<path id="SVGID_1_" d="M279.8,100.1c27.6,0,50-22.4,50-50s-22.4-50-50-50s-50,22.4-50,50S252.1,100.1,279.8,100.1L279.8,100.1z
				 M272.6,77.3V50.1h-5.6v-9.4h5.6v-5.6c0-7.7,3.2-12.1,12.1-12.1h7.5v9.3h-4.7c-3.5,0-3.7,1.3-3.7,3.7v4.7h8.5l-1,9.4h-7.5v27.2
				L272.6,77.3L272.6,77.3z"/>
		</defs>
		<use xlink:href="#SVGID_1_"  style="overflow:visible;fill:#E9E9E9;"/>
		<clipPath id="SVGID_2_">
			<use xlink:href="#SVGID_1_"  style="overflow:visible;"/>
		</clipPath>
		<path class="st1" d="M221.3-8.2H338v116.6H221.3V-8.2z"/>
	</g>
</g>
<g>
	<g>
		<path id="SVGID_5_" class="st0" d="M508.5,100.1c27.6,0,50-22.4,50-50s-22.3-50-50-50c-27.6,0-50,22.4-50,50
			S480.9,100.1,508.5,100.1L508.5,100.1z M487.7,51.1c-0.8-2.1-1.1-4.6-1.1-7.3c0-4.8,1.5-6.7,3.6-9.2c-1.5-5.5,0.5-9.3,0.5-9.3
			s3.3-0.7,9.5,3.7c3.4-1.4,12.5-1.5,16.7-0.3c2.6-1.8,7.4-4.2,9.4-3.4c0.5,0.9,1.6,3.3,0.7,8.5c0.7,1.2,4,3.6,4,10.6
			c-0.1,2.6-0.3,4.8-0.9,6.7c0.1,0-0.7,2.3-0.9,2.3c-2.3,4.9-6.9,6.7-14.4,7.4c2.4,1.5,3.2,3.4,3.2,8.5c0,5.1-0.1,5.8,0,7
			c0,2,3,2.8,2.8,3.5c-0.1,0.7-2.4,0.5-3.5,0.1c-3.1-1.1-2.7-3.5-2.7-3.5l-0.1-6.8c0,0,0.2-3.7-1.2-3.7v11.2c0,2.4,1.8,3.2,1.8,4
			c0,1.5-3.2-0.1-4.2-1.1c-1.5-1.4-1.3-4.6-1.3-7c0-2.4,0-7.5,0-7.5h-1c0,0,0.4,11.4-0.5,13.5c-1.2,2.6-4.9,3.6-4.9,2.4
			c0-0.8,0.9-0.5,1.4-2.4c0.4-1.5,0.3-13.1,0.3-13.1s-1.2,0.7-1.2,2.8c0,1,0,6.7,0,8.3c0,2.1-3.1,3.3-4.5,3.3c-0.8,0-1.6,0-1.6-0.4
			c0-1,2.8-1.5,2.8-3.6c0-1.8,0-6.3,0-6.3s-1.4,0.2-3.4,0.2c-5,0-6.7-3.2-7.4-4.9c-1-2.3-2.3-3.4-3.6-4.3c-0.9-0.5-1-1.2-0.1-1.3
			c4.5-0.9,5.7,5,8.6,5.9c2.2,0.7,4.9,0.3,6.2-0.5c0.2-1.8,1.5-3.3,2.6-4.2c-7.7-0.8-12.1-3.3-14.6-7.5
			C488.7,53.3,487.7,51.1,487.7,51.1L487.7,51.1z"/>
	</g>
	<g>
		<defs>
			<path id="SVGID_4_" d="M508.5,100.1c27.6,0,50-22.4,50-50s-22.3-50-50-50c-27.6,0-50,22.4-50,50S480.9,100.1,508.5,100.1
				L508.5,100.1z M487.7,51.1c-0.8-2.1-1.1-4.6-1.1-7.3c0-4.8,1.5-6.7,3.6-9.2c-1.5-5.5,0.5-9.3,0.5-9.3s3.3-0.7,9.5,3.7
				c3.4-1.4,12.5-1.5,16.7-0.3c2.6-1.8,7.4-4.2,9.4-3.4c0.5,0.9,1.6,3.3,0.7,8.5c0.7,1.2,4,3.6,4,10.6c-0.1,2.6-0.3,4.8-0.9,6.7
				c0.1,0-0.7,2.3-0.9,2.3c-2.3,4.9-6.9,6.7-14.4,7.4c2.4,1.5,3.2,3.4,3.2,8.5c0,5.1-0.1,5.8,0,7c0,2,3,2.8,2.8,3.5
				c-0.1,0.7-2.4,0.5-3.5,0.1c-3.1-1.1-2.7-3.5-2.7-3.5l-0.1-6.8c0,0,0.2-3.7-1.2-3.7v11.2c0,2.4,1.8,3.2,1.8,4
				c0,1.5-3.2-0.1-4.2-1.1c-1.5-1.4-1.3-4.6-1.3-7c0-2.4,0-7.5,0-7.5h-1c0,0,0.4,11.4-0.5,13.5c-1.2,2.6-4.9,3.6-4.9,2.4
				c0-0.8,0.9-0.5,1.4-2.4c0.4-1.5,0.3-13.1,0.3-13.1s-1.2,0.7-1.2,2.8c0,1,0,6.7,0,8.3c0,2.1-3.1,3.3-4.5,3.3c-0.8,0-1.6,0-1.6-0.4
				c0-1,2.8-1.5,2.8-3.6c0-1.8,0-6.3,0-6.3s-1.4,0.2-3.4,0.2c-5,0-6.7-3.2-7.4-4.9c-1-2.3-2.3-3.4-3.6-4.3c-0.9-0.5-1-1.2-0.1-1.3
				c4.5-0.9,5.7,5,8.6,5.9c2.2,0.7,4.9,0.3,6.2-0.5c0.2-1.8,1.5-3.3,2.6-4.2c-7.7-0.8-12.1-3.3-14.6-7.5
				C488.7,53.3,487.7,51.1,487.7,51.1L487.7,51.1z"/>
		</defs>
		<use xlink:href="#SVGID_4_"  style="overflow:visible;fill:#E9E9E9;"/>
		<clipPath id="SVGID_6_">
			<use xlink:href="#SVGID_4_"  style="overflow:visible;"/>
		</clipPath>
		<path class="st2" d="M450.2-8.2h116.6v116.6H450.2V-8.2z"/>
	</g>
</g>
<g>
	<g>
		<path id="SVGID_7_" class="st0" d="M394.1,100.1c27.6,0,50-22.4,50-50s-22.4-50-50-50c-27.6,0-50,22.4-50,50
			S366.6,100.1,394.1,100.1L394.1,100.1z M381.4,73.6h-11.4v-34h11.3v34H381.4z M375.7,35L375.7,35c-3.8,0-6.3-2.6-6.3-5.9
			c0-3.4,2.5-5.9,6.5-5.9c3.8,0,6.2,2.5,6.3,5.9C382.2,32.4,379.7,35,375.7,35L375.7,35z M422.2,73.6H411V55.5
			c0-4.6-1.6-7.7-5.7-7.7c-3.2,0-5,2.1-5.8,4.2c-0.3,0.8-0.3,1.8-0.3,2.7v19h-11.3c0,0,0.1-30.9,0-34h11.3v4.8
			c1.5-2.3,4.2-5.6,10.2-5.6c7.4,0,13,4.8,13,15.3L422.2,73.6L422.2,73.6z"/>
	</g>
	<g>
		<defs>
			<path id="SVGID_8_" d="M394.1,100.1c27.6,0,50-22.4,50-50s-22.4-50-50-50c-27.6,0-50,22.4-50,50S366.6,100.1,394.1,100.1
				L394.1,100.1z M381.4,73.6h-11.4v-34h11.3v34H381.4z M375.7,35L375.7,35c-3.8,0-6.3-2.6-6.3-5.9c0-3.4,2.5-5.9,6.5-5.9
				c3.8,0,6.2,2.5,6.3,5.9C382.2,32.4,379.7,35,375.7,35L375.7,35z M422.2,73.6H411V55.5c0-4.6-1.6-7.7-5.7-7.7
				c-3.2,0-5,2.1-5.8,4.2c-0.3,0.8-0.3,1.8-0.3,2.7v19h-11.3c0,0,0.1-30.9,0-34h11.3v4.8c1.5-2.3,4.2-5.6,10.2-5.6
				c7.4,0,13,4.8,13,15.3L422.2,73.6L422.2,73.6z"/>
		</defs>
		<use xlink:href="#SVGID_8_"  style="overflow:visible;fill:#E9E9E9;"/>
		<clipPath id="SVGID_9_">
			<use xlink:href="#SVGID_8_"  style="overflow:visible;"/>
		</clipPath>
		<path class="st3" d="M335.8-8.2h116.6v116.6H335.8V-8.2z"/>
	</g>
</g>
<path class="st0" d="M51,0.1c-27.6,0-50,22.4-50,50s22.4,50,50,50s50-22.4,50-50C101,22.5,78.6,0.1,51,0.1z M78.6,31.1L51,55.2
	L23.4,31.1H78.6z M20.7,33l19.3,17l-19.3,17V33z M23.4,69.1l19-16.8l8.5,7.5l8.5-7.5l19,16.8H23.4z M81.3,66.9L61.9,50l19.4-17
	C81.3,33,81.3,66.9,81.3,66.9z"/>
<g>
	<defs>
		<path id="SVGID_10_" d="M165.4,100c27.6,0,50-22.4,50-50S193,0,165.4,0c-27.6,0-50,22.4-50,50S137.8,100,165.4,100L165.4,100z
			 M172.3,30.5c-4.4,1.6-7.1,5.7-6.8,10.2l0.1,1.7l-1.7-0.2c-6.4-0.8-11.9-3.6-16.6-8.2l-2.3-2.3l-0.6,1.7
			c-1.3,3.8-0.5,7.8,2.2,10.5c1.4,1.5,1.1,1.7-1.3,0.8c-0.8-0.3-1.6-0.5-1.6-0.4c-0.2,0.2,0.6,3.5,1.3,4.7c0.9,1.8,2.8,3.5,4.8,4.5
			l1.7,0.8l-2,0c-2,0-2,0-1.8,0.8c0.7,2.3,3.5,4.7,6.5,5.8l2.2,0.7l-1.9,1.1c-2.8,1.6-6.1,2.5-9.4,2.6c-1.6,0-2.9,0.2-2.9,0.3
			c0,0.4,4.3,2.3,6.7,3.1c7.4,2.3,16.3,1.3,22.9-2.6c4.7-2.8,9.4-8.3,11.6-13.7c1.2-2.9,2.4-8.1,2.4-10.6c0-1.6,0.1-1.8,2.1-3.8
			c1.2-1.1,2.2-2.4,2.4-2.7c0.3-0.7,0.3-0.7-1.5-0.1c-3,1.1-3.4,0.9-1.9-0.7c1.1-1.1,2.4-3.2,2.4-3.8c0-0.1-0.5,0.1-1.1,0.4
			c-0.6,0.4-2,0.9-3.1,1.2l-1.9,0.6l-1.7-1.2c-0.9-0.6-2.3-1.3-3-1.6C176.7,29.8,173.9,29.9,172.3,30.5L172.3,30.5z M172.3,30.5"/>
	</defs>
	<use xlink:href="#SVGID_10_"  style="overflow:visible;fill-rule:evenodd;clip-rule:evenodd;fill:#E9E9E9;"/>
	<clipPath id="SVGID_11_">
		<use xlink:href="#SVGID_10_"  style="overflow:visible;"/>
	</clipPath>
	<path class="st4" d="M107-8.3h116.7v116.7H107V-8.3z M107-8.3"/>
</g>
</svg>
